<?xml version="1.0" encoding="UTF-8" standalone="no"?>
<svg
   xmlns:dc="http://purl.org/dc/elements/1.1/"
   xmlns:cc="http://creativecommons.org/ns#"
   xmlns:rdf="http://www.w3.org/1999/02/22-rdf-syntax-ns#"
   xmlns:svg="http://www.w3.org/2000/svg"
   xmlns="http://www.w3.org/2000/svg"
   xmlns:sodipodi="http://sodipodi.sourceforge.net/DTD/sodipodi-0.dtd"
   xmlns:inkscape="http://www.inkscape.org/namespaces/inkscape"
   version="1.0"
   width="640.000000pt"
   height="387.000000pt"
   viewBox="0 0 640.000000 387.000000"
   preserveAspectRatio="xMidYMid meet"
   id="svg867"
   sodipodi:docname="treasureship.svg"
   inkscape:version="1.0 (4035a4fb49, 2020-05-01)">
  <defs
     id="defs871" />
  <sodipodi:namedview
     inkscape:document-rotation="0"
     pagecolor="#ffffff"
     bordercolor="#666666"
     borderopacity="1"
     objecttolerance="10"
     gridtolerance="10"
     guidetolerance="10"
     inkscape:pageopacity="0"
     inkscape:pageshadow="2"
     inkscape:window-width="1920"
     inkscape:window-height="1051"
     id="namedview869"
     showgrid="false"
     inkscape:zoom="0.984375"
     inkscape:cx="464.33683"
     inkscape:cy="274.98013"
     inkscape:window-x="-9"
     inkscape:window-y="-9"
     inkscape:window-maximized="1"
     inkscape:current-layer="svg867" />
  <metadata
     id="metadata853">
Created by potrace 1.16, written by Peter Selinger 2001-2019
<rdf:RDF>
  <cc:Work
     rdf:about="">
    <dc:format>image/svg+xml</dc:format>
    <dc:type
       rdf:resource="http://purl.org/dc/dcmitype/StillImage" />
    <dc:title></dc:title>
  </cc:Work>
</rdf:RDF>
</metadata>
  <rect
     y="2.3066998e-06"
     x="3.8146973e-06"
     height="387"
     width="640"
     id="rect833"
     style="fill:#b95644;fill-opacity:1;stroke:none;stroke-width:0;stroke-miterlimit:4;stroke-dasharray:none" />
  <g
     style="fill:#a22e2d;fill-opacity:1"
     transform="translate(0.000000,387.000000) scale(0.100000,-0.100000)"
     fill="#000000"
     stroke="none"
     id="g865">
    <path
       style="fill:#a22e2d;fill-opacity:1"
       d="m 3141,3791 c -11,-7 -11,-36 4,-184 10,-97 15,-183 12,-190 -3,-8 -18,-17 -34,-20 -15,-3 -37,-12 -48,-20 -19,-14 -19,-16 -2,-34 9,-11 17,-27 17,-36 0,-11 13,-18 45,-23 28,-4 45,-11 45,-20 0,-17 -37,-17 -213,0 -127,12 -128,12 -123,-9 8,-34 73,-377 81,-425 l 7,-45 -53,80 c -29,43 -82,110 -118,147 -73,75 -56,69 -251,88 -63,7 -118,15 -123,19 -4,4 -14,74 -22,157 l -14,149 22,17 c 33,26 64,22 141,-17 91,-46 124,-45 176,1 l 40,36 47,-16 c 66,-22 83,-20 139,17 47,31 48,32 22,35 -15,2 -36,-2 -47,-7 -40,-22 -44,-10 -6,16 28,20 57,30 100,34 l 60,5 -37,17 c -52,24 -86,21 -131,-10 l -38,-27 -47,19 c -26,10 -61,20 -78,22 -28,4 -35,0 -63,-41 -20,-29 -39,-46 -52,-46 -11,0 -52,19 -90,41 -74,44 -64,43 -191,23 -45,-7 -44,6 -19,-244 10,-96 17,-176 15,-178 -1,-2 -76,4 -167,12 -90,9 -171,16 -180,16 -12,0 -6,-28 30,-137 93,-289 178,-632 208,-848 35,-242 0,-652 -84,-981 l -18,-71 75,-7 c 41,-3 132,-6 202,-6 147,0 137,7 147,-108 l 6,-74 -194,6 c -107,4 -201,10 -209,12 -8,3 -46,47 -83,98 -65,90 -70,94 -114,100 -25,3 -58,6 -73,6 -32,0 -40,18 -40,90 v 45 l 74,-3 c 89,-4 138,15 164,62 9,17 17,33 17,36 1,3 5,12 8,20 71,172 74,496 8,752 -39,152 -154,373 -213,412 -13,8 -68,31 -123,51 -54,19 -103,41 -107,48 -4,7 -8,27 -8,45 0,28 -3,32 -28,32 -26,0 -28,-3 -24,-30 2,-18 0,-30 -7,-30 -6,0 -47,13 -91,29 -44,16 -80,27 -80,23 0,-4 9,-56 20,-117 11,-60 27,-164 35,-230 16,-123 32,-465 23,-465 -3,0 -18,35 -33,77 -36,101 -77,184 -130,258 l -43,60 -120,37 -121,38 -10,37 c -6,21 -11,42 -11,46 0,5 -7,33 -16,63 -13,46 -19,54 -40,54 -29,0 -29,-5 -8,-99 9,-40 14,-74 11,-77 -3,-3 -37,4 -77,16 -40,12 -74,19 -77,17 -2,-3 9,-31 25,-63 53.64299,-180.8372 246.8553,-557.2701 109,-740 -2,-3 -7,17 -10,43 -13,105 -101,318 -171,413 -29,39 -44,49 -115,75 -46,16 -86,34 -89,40 -4,5 -16,39 -27,75 -18,57 -24,65 -48,68 -15,2 -27,2 -27,0 0,-2 7,-25 15,-52 23,-77 23,-77 -57,-46 -40,15 -83,30 -95,34 l -23,7 19,-43 c 29,-69 107,-312 135,-425 47,-184 51,-374 11,-470 -9,-20 -14,-38 -12,-40 2,-2 71,-6 152,-10 l 147,-6 15,-35 c 8,-19 13,-35 11,-37 -2,-2 -86,3 -187,11 -102,7 -187,12 -189,9 -4,-4 45,-154 57,-174 7,-10 87,-25 202,-36 l 66,-6 34,-71 c 64,-133 171,-267 279,-349 36,-27 76,-49 88,-49 33,0 78,28 91,57 l 11,24 40,-42 c 39,-41 40,-41 95,-37 56,5 105,35 105,65 0,21 16,15 30,-13 39,-71 170,-73 206,-2 15,29 34,37 34,15 0,-8 12,-24 26,-38 21,-20 36,-24 84,-24 48,0 63,4 84,24 14,14 26,30 26,38 0,21 20,15 31,-10 25,-55 116,-74 176,-38 17,11 34,29 38,40 8,28 19,26 33,-4 17,-37 67,-58 121,-52 37,4 52,12 78,42 l 32,38 11,-25 c 16,-34 61,-58 109,-58 186.3964,0.43086 997.2481,-11.12134 1191.8096,2.14286 0,0 36.0952,229.28571 40.0952,229.28571 C 3830.9048,791.42857 2663,811 2656,818 c -3,3 -157,10 -343,17 l -337,12 -28,33 c -32,39 -29,51 12,46 33,-4 36,2 18,26 -11,14 -89,21 -513,47 -709,44 -695,43 -695,53 0,6 26,7 63,4 60,-6 135,-10 672,-41 512,-30 464,-24 496,-59 16,-17 29,-34 29,-38 0,-5 -19,-8 -42,-8 h -42 l 20,-20 c 23,-24 39,-25 404,-35 129,-3 247,-8 263,-11 29,-6 39,12 10,19 -10,2 -7,4 7,3 19,-1 26,5 28,21 3,19 -3,23 -37,29 -39,6 -41,8 -41,43 0,20 -3,61 -6,91 -4,36 -2,50 4,41 7,-9 12,-10 16,-2 4,6 260.3316,-4.2928 277.3316,-4.2928 C 2579.0679,1579.0592 2192.6422,2402.9369 2146,2653 c -3,17 -6,36 -5,40 0,4 -7,19 -16,33 -9,13 -14,28 -11,32 2,4 -11,54 -30,111 -19,57 -34,109 -34,115 0,6 -6,22 -13,36 -8,14 -17,40 -20,57 l -6,32 47,-5 c 26,-2 175,-16 332,-30 325,-29 293,-17 394,-144 52,-65 144,-218 166,-275 21,-56 81,-498 87,-645 6,-154 -5,-308 -38,-524 -14,-93 -115.6684,-394.2928 -107.6684,-401.2928 23,-23 141.6684,294.2928 153.6684,420.2928 1,11 5,31 9,45 21,80 31,449 17,580 -22,195 -65,480 -101,665 -6,28 -26,131 -45,229 -39,198 -41,217 -22,211 6,-2 149,-16 317,-31 168,-15 315,-30 327,-35 25,-9 115,-157 108,-177 -3,-7 -1,-11 4,-8 471.9913,-941.6154 -999.982,-1063.3257 -448.298,-1945.8376 l 225.8304,-10.0406 -11.2186,-263.25217 84.6309,-7.71405 6.5125,258.96622 L 3780,998 l 18,21 c 9,11 35,24 57,29 35,7 42,13 53,47 27,78 62,292 73,448 17,239 7,623 -21,762 -56,282 -185,605 -335,835 l -43,67 -68,7 c -159,15 -255,29 -260,37 -3,5 1,9 9,9 19,0 57,55 57,83 0,12 5,28 11,34 14,14 -10,27 -63,37 -43,8 -44,11 -53,124 l -7,82 h 28 c 16,0 58,-14 94,-31 55,-26 73,-30 114,-25 33,4 58,14 75,30 50,46 65,49 136,25 73,-25 123,-22 166,10 52,39 70,37 132,-18 32,-28 69,-54 83,-57 28,-7 106,19 124,41 10,12 29,14 95,9 66,-5 91,-3 129,11 55,21 52,30 -11,26 -49,-3 -173,18 -173,30 0,7 60,19 105,19 26,1 27,2 12,11 -10,6 -53,11 -96,12 -77,2 -78,2 -120,-35 -22,-21 -45,-38 -50,-38 -5,0 -31,20 -59,45 -70,63 -91,69 -166,49 -110,-30 -117,-30 -202,15 -49,26 -90,41 -113,41 -42,0 -54,-7 -70,-37 -23,-44 -43,-45 -114,-8 -40,21 -80,35 -101,35 -20,0 -36,5 -36,10 0,12 -30,13 -49,1 z M 1552,2639 c 45,-17 133,-49 193,-71 61,-23 116,-49 123,-59 8,-10 22,-28 33,-40 21,-25 24,-39 8,-39 192.9078,-851.5678 -88.0815,-869.5045 -250,-1059 -10,-11 -15,-22 -12,-25 9,-8 -163,-7 -208,2 l -37,7 35,110 c 66,208 86,337 86,540 0,190 -13,327 -60,628 -3,20 -3,37 0,37 3,0 43,-14 89,-31 z m -96,-846 c 5,-49 1,-85 -16,-158 -13,-52 -26,-92 -30,-90 -5,3 -6,-4 -3,-15 3,-11 0,-20 -6,-20 -5,0 -8,-8 -4,-17 5,-17 5,-17 -8,-1 -664.29299,270.1566 -68.132,1418.0905 67,301 z m -838,344 c 98,-37 113,-50 154,-131 78.27447,-428.5327 59.34429,-644.6281 -264,-661 l 9,45 c 15,84 9,289 -11,375 -23,100 -89,323 -116,393 -11,29 -20,56 -20,61 0,9 48,-7 248,-82 z m 501,-850 125,-22 8,-33 c 5,-19 8,-37 6,-41 -3,-7 -405,23 -412,30 -3,2 -7,16 -11,30 -6,23 -2,28 32,42 50,21 103,20 252,-6 z m 601,-6 c 34,-6 35,-9 44,-64 5,-31 6,-60 3,-64 -6,-5 -437,23 -443,30 -1,1 -5,17 -9,34 -6,32 -6,33 25,27 32,-7 63,4 110,39 21,16 36,17 130,11 58,-3 121,-9 140,-13 z"
       id="path855"
       sodipodi:nodetypes="ccccccscscccccccccccccccccccccccccccscccccscccccsccccccssccccccccssscsssccsccccccscscsscccccccccscccccccscccscccccccsccccsccscscsccccccccccssccccccscccssccccccccsccccccccssccccccccccccccccsccccccccccccccccccssscccsccccccccsccscsccscccsccsscccccccccccscsccccsscccccccccscccccccccccccccccc" />
    <path
       style="fill:#a22e2d;fill-opacity:1"
       d="m 4518,3480 c -14,-10 -33,-39 -42,-65 -10,-25 -23,-45 -30,-45 -7,0 -30,13 -51,30 -49,39 -86,48 -217,52 l -108,4 v -31 c 0,-16 5,-82 11,-145 7,-81 7,-116 0,-118 -55,-18 -61,-86 -10,-106 16,-6 29,-16 29,-23 0,-17 5,-17 -140,17 -68,16 -126,27 -128,25 -2,-2 10,-46 26,-97 237.3028,-613.8955 303.6653,-1267.2002 117,-1827 -19,-58 -35,-108 -35,-113 0,-4 72,-5 159,-2 147,5 160,4 165,-13 7,-21 26,-206 22,-210 -7,-7 -405.7936,-27.69374 -468.7936,-23.69374 L 3199.054,529.20394 C 3320.6668,534.85089 2840.0043,314.26208 3804,432 c 5,10 7,10 13,-2 3,-8 19,-27 34,-42 38,-39 113,-40 158,-2 17,14 31,32 31,40 0,21 8,17 49,-26 33,-35 44,-40 82,-40 50,0 104,28 114,59 8,26 22,27 30,1 25,-77 179,-80 214,-3 12,25 31,31 31,9 0,-8 14,-26 31,-40 57,-48 164,-28 184,34 8,26 22,25 30,-1 15,-47 110,-74 168,-48 13,6 31,24 41,40 18,31 36,38 36,15 0,-8 14,-26 31,-40 57,-48 164,-28 184,34 9,27 24,25 35,-5 12,-32 59,-55 111,-55 36,0 47,6 82,42 29,31 42,38 45,28 3,-8 18,-27 33,-42 51,-51 164,-31 184,32 9,28 22,25 39,-8 36,-70 166,-70 202,0 17,33 30,36 39,8 20,-62 127,-82 184,-34 17,14 31,34 31,45 0,10 7,19 15,19 8,0 15,-8 15,-18 0,-25 39,-60 78,-72 l 32,-9 v 127 c -1,91 -3,122 -11,109 -35,-60 -169,-62 -219,-2 -12,14 -16,13 -41,-11 -18,-18 -42,-28 -73,-31 -58,-7 -87,1 -125,33 -17,14 -31,21 -31,16 0,-20 -67,-52 -108,-52 -49,0 -80,11 -107,38 -20,19 -20,19 -53,-9 -18,-16 -40,-29 -50,-30 -63,-4 -127,15 -147,44 l -15,21 -29,-28 c -52,-50 -156,-45 -200,8 -12,14 -16,13 -42,-9 -54,-45 -139,-45 -194,-1 l -30,24 -26,-25 c -28,-26 -90,-40 -133,-29 -13,3 -38,17 -54,31 -26,22 -31,23 -43,9 -48,-58 -170,-58 -218,0 -12,14 -17,13 -43,-9 -56,-47 -139,-47 -190,2 -28,26 -30,27 -40,10 -33,-59 -169,-61 -218,-2 -12,14 -15,14 -34,-4 -23,-22 -68,-41 -94,-40 -9,0 6,10 33,23 32,15 55,33 63,50 l 12,27 38,-41 c 34,-35 44,-40 83,-40 50,0 104,28 114,59 9,28 19,26 35,-5 39,-72 176,-71 209,3 11,25 31,31 31,10 0,-8 12,-24 26,-38 21,-20 36,-24 84,-24 48,0 63,4 84,24 14,14 26,30 26,38 0,21 16,15 30,-13 39,-72 172,-71 211,3 14,25 29,31 29,10 0,-8 12,-24 26,-38 21,-20 36,-24 84,-24 48,0 63,4 84,24 14,14 26,30 26,38 0,21 20,15 31,-10 33,-74 170,-75 209,-3 16,31 26,33 35,5 9,-26 62,-59 97,-59 41,0 80,18 72,32 -4,7 -4,10 1,6 10,-9 47,31 39,43 -3,5 0,9 6,9 12,0 49,39 50,53 0,6 51,73 108,142 29,34 72,105 72,118 0,7 16,38 35,70 19,32 35,60 35,63 0,3 -46,2 -101,-2 l -101,-7 7,24 c 4,13 9,26 11,28 1,2 37,-4 79,-14 42,-9 87,-14 100,-11 31,8 81,55 90,84 3,12 10,22 15,22 6,0 35,57 45,90 1,3 7,19 14,35 61,147 71,439 21,624 -8,31 -18,41 -64,63 l -55,27 14,51 c 8,27 22,73 30,102 19,66 19,63 -10,76 -24,11 -25,10 -39,-41 -9,-29 -20,-73 -27,-100 -6,-26 -15,-50 -20,-53 -5,-3 -43,13 -84,36 l -75,41 -1,-98 c 0,-54 -4,-118 -8,-143 -7,-45 -7,-45 -14,29 -4,40 -15,102 -23,137 l -16,64 -79,42 c -58,32 -79,48 -79,63 0,11 9,72 20,135 27,154 26,170 -4,170 -22,0 -24,-6 -46,-140 -13,-77 -26,-142 -29,-144 -4,-3 -59,25 -124,60 -65,35 -119,64 -121,64 -2,0 3,-26 11,-57 10,-38 16,-125 18,-253 3,-149 2,-183 -6,-145 -41,204 -55,260 -90,362 -22,63 -51,137 -64,164 -26,50 -26,50 -128,75 -15,3 -29,10 -32,14 -7,11 12,360 19,368 4,3 20,-5 38,-18 27,-20 35,-21 63,-11 17,6 51,11 75,11 42,0 43,1 26,19 -10,11 -31,25 -47,31 -38,16 -37,26 9,49 30,16 34,21 19,26 -9,4 -46,1 -82,-6 -51,-10 -70,-10 -91,0 -14,6 -34,9 -44,6 -16,-5 -18,-29 -25,-235 -5,-162 -10,-230 -19,-230 -6,0 -78,18 -161,39 -82,22 -153,37 -156,35 -4,-2 -28,33 -53,79 -26,45 -68,112 -95,148 -42,57 -55,67 -87,73 -22,4 -74,17 -116,29 -67,19 -78,25 -78,44 0,12 9,27 21,33 30,17 23,80 -11,97 -27,13 -38,54 -39,150 l -1,53 63,-6 c 109,-9 127,-14 165,-48 45,-40 73,-50 118,-41 29,5 38,14 60,57 26,51 26,51 43,31 24,-31 82,-63 113,-63 16,0 41,12 61,30 39,34 72,38 136,15 46,-16 51,-12 19,16 -62,53 -144,64 -188,24 -29,-26 -51,-15 -72,40 -10,28 -28,58 -40,68 -27,23 -69,22 -100,-3 z m -124,-589 c 16,-14 106,-146 106,-155 0,-2 15,-30 33,-63 82,-146 99,-203 126,-438 33,-277 -24.4873,-955.9358 -73.4873,-1080.9358 C 3835.7123,1531.7305 4328.0774,2936.2928 4394,2891 Z m 672,-390 c 26,-11 56,-74 100,-208 63,-194 87,-335 85,-517 -1,-107 -4,-129 -32,-210 -18,-50 -44,-110 -58,-133 -23,-36 -28,-40 -43,-29 -432.5206,138.9826 -311.7465,830.8396 -456,1124 -3,9 4,11 20,8 181.1994,12.2543 189.8535,27.9187 384,-35 z m 506,-301 c 68,-37 119,-73 122,-83 -59.9779,-207.145 -157.2395,-820.3636 -493,-703 l 16,30 c 27,51 90,256 104,336 14,82 18,372 7,488 l -7,72 67,-37 c 37,-21 120,-67 184,-103 z m 505,-224 c 63.0635,-484.1755 -262.4674,-803.4636 -475,-740 -8,2 -1,20 23,54 122,173 184,389 201,696 l 7,120 120,-63 c 67,-35 122,-65 124,-67 z m -389,-811 c 1,-1 -1,-20 -6,-41 l -8,-39 -74,-6 c -41,-4 -112,-7 -157,-8 l -81,-1 7,28 8,27 89,-2 c 86,-2 90,-1 124,27 28,24 41,29 65,24 17,-4 31,-7 33,-9 z m -410,-21 c 18,-5 22,-13 22,-44 v -38 l -62,-6 c -35,-3 -123,-8 -197,-12 l -134,-7 6,24 c 4,13 7,32 7,41 0,14 13,17 78,21 75,4 119,11 130,22 7,7 122,6 150,-1 z m -423,-69 c 0,-40 0,-40 -44,-45 -42,-5 -48,-10 -111,-90 l -66,-85 -75,-11 c -41,-6 -104,-15 -140,-18 l -66,-7 -7,32 c -10,53 -7,191 4,184 6,-4 16,-2 23,3 7,5 55,13 107,16 92,7 180,35 180,58 0,5 44,7 98,6 l 97,-3 z"
       id="path857"
       sodipodi:nodetypes="ccscccscccscsccsccsccccccscscccscccccscccsccscccccsssccccccccssccccccccsccccccccccccccccscccscscsccscscscccssccsccssscccccccsccccccccccsccccccccscsccssccccccccccsccccccccsccccccscccccccccsccccccccscccccccccccccccccccccccccccccsccccccccccscscccccscscsccccccccscsccs" />
    <path
       style="fill:#a22e2d;fill-opacity:1"
       d="m 10,483 c 0,-133 1,-136 55,-111 15,7 33,25 41,40 17,33 30,36 39,8 20,-62 127,-82 184,-34 17,14 31,32 31,40 0,23 19,16 34,-14 36,-71 171,-69 204,2 14,31 28,33 37,6 20,-62 127,-82 184,-34 17,14 31,32 31,40 0,21 8,17 49,-26 35,-37 42,-40 90,-40 44,0 57,5 80,28 15,15 31,34 34,42 6,12 8,12 13,2 20,-45 52,-65 105,-70 49,-4 59,-1 87,23 18,15 32,33 32,41 0,21 8,17 49,-26 34,-36 43,-40 88,-40 54,0 96,24 108,60 9,27 24,25 35,-5 28,-72 176,-72 209,2 12,25 31,31 31,9 0,-8 14,-26 31,-40 57,-48 164,-28 184,34 8,26 22,25 30,-1 4,-11 21,-29 38,-40 60,-36 151,-18 175,35 12,28 32,35 32,12 0,-8 14,-26 31,-40 57,-48 164,-28 184,34 316.2387,-179.74623 2214.565,155.75891 23,122 -38,-3 -85,15 -107,42 -12,14 -16,13 -42,-9 -55,-46 -144,-45 -194,1 l -27,25 -28,-26 c -29,-28 -90,-42 -134,-31 -13,3 -38,17 -54,31 -26,22 -31,23 -43,9 -47,-56 -156,-58 -215,-3 -19,18 -22,18 -34,4 -48,-58 -180,-57 -213,1 -7,12 -14,9 -43,-12 -61,-47 -160,-42 -203,10 -12,14 -16,13 -42,-9 -54,-45 -144,-45 -192,-1 -23,21 -28,22 -38,9 -48,-57 -171,-56 -219,2 -12,14 -16,13 -41,-11 -51,-49 -185,-41 -206,12 -4,11 -11,9 -35,-11 -37,-31 -67,-39 -124,-32 -31,3 -55,13 -73,31 -25,24 -29,25 -41,11 C 190,525 56,527 21,587 13,600 11,571 10,483 Z"
       id="path861"
       sodipodi:nodetypes="cccccsccccscssccccscssccscccccscccccccccccccccccccccccccccc" />
  </g>
</svg>
