<svg id="Capa_1" enable-background="new 0 0 512 512" height="512" viewBox="0 0 512 512" width="512" xmlns="http://www.w3.org/2000/svg"><g style="fill: lightGreen;"><path d="m497 192.086c-57.534 0-106.862 8.753-150.805 26.76-44.426 18.205-83.265 45.759-118.547 84.115h-15.648v-82.666c5.269-2.841 12.271-6.942 19.303-12.032 21.043-15.232 31.712-31.457 31.712-48.224v-92.588c0-16.767-10.669-32.992-31.712-48.224-13.848-10.024-27.595-16.224-28.173-16.482l-6.13-2.745-6.129 2.745c-.579.259-14.326 6.458-28.174 16.482-21.043 15.232-31.712 31.457-31.712 48.224v92.589c0 16.767 10.669 32.992 31.712 48.224 7.032 5.09 14.034 9.191 19.303 12.032v82.666h-98.554v-34.914c18.259-6.253 31.427-23.575 31.427-43.926 0-19.043-25.034-77.187-32.706-94.554l-13.721-31.058-13.721 31.057c-7.672 17.367-32.707 75.511-32.707 94.554 0 20.351 13.168 37.673 31.427 43.926v34.915h-38.445-15v209.038h512v-319.914zm-336.015-32.046v-92.589c0-10.628 19.333-25.556 36.032-34.333 16.696 8.742 36 23.639 36 34.333v92.589c0 10.625-19.325 25.549-36.032 34.333-16.698-8.742-36-23.639-36-34.333zm-92.538 14.368c9.171 23.038 16.383 43.846 16.426 49.713 0 9.058-7.369 16.427-16.427 16.427s-16.427-7.369-16.427-16.426c.044-5.866 7.256-26.674 16.428-49.714zm413.553 47.892v23.151c-59.052 4.987-109.947 23.873-155.044 57.51h-57.042c56.933-52.748 124.022-78.119 212.086-80.661zm-452 229.13c47.997 1.096 90.196 8.023 129.589 30.57h-129.589zm181.562 30.57c-58.366-49.184-121.268-59.323-181.562-60.591v-27.544c105.372 2.298 181.565 29.305 246.575 88.136h-65.013zm107.907 0c-40.153-42.173-84.204-72.009-134.482-91.104-44.497-16.899-95.33-25.771-154.986-27.031v-30.777c155.87 2.69 263.482 47.964 352.097 148.911h-62.629zm46.049-59.679c-11.692-10.661-23.713-20.545-36.088-29.68h152.57v29.68zm55.725 59.679c-8.342-10.384-16.854-20.275-25.551-29.68h86.308v29.68zm60.757-119.359h-199.286c-11.727-6.483-23.753-12.411-36.109-17.78-9.905-4.305-20.068-8.267-30.496-11.899h265.891zm-98.328-59.68c29.793-15.014 62.346-24.069 98.328-27.401v27.401z"/><path d="m358.352 109.436-13.876 13.876 21.213 21.213 13.876-13.876c3.882 2.198 8.05 3.942 12.436 5.166v28.185h30v-28.185c4.386-1.224 8.554-2.968 12.436-5.166l13.876 13.876 21.213-21.213-13.876-13.876c2.198-3.882 3.942-8.05 5.166-12.436h28.184v-30h-28.185c-1.224-4.385-2.968-8.553-5.166-12.436l13.876-13.876-21.213-21.213-13.876 13.876c-3.882-2.198-8.05-3.942-12.436-5.167v-28.184h-30v28.185c-4.386 1.224-8.554 2.968-12.436 5.167l-13.876-13.876-21.213 21.213 13.876 13.876c-2.198 3.882-3.942 8.05-5.166 12.436h-28.185v30h28.185c1.224 4.385 2.969 8.553 5.167 12.435zm22.772-27.436c0-14.269 11.608-25.876 25.876-25.876s25.877 11.608 25.877 25.876-11.608 25.877-25.877 25.877-25.876-11.608-25.876-25.877z"/></g></svg>
