<svg id="Capa_1" enable-background="new 0 0 512 512" height="512" viewBox="0 0 512 512" width="512" xmlns="http://www.w3.org/2000/svg"><g style="fill: darkRed;"><path d="m480.573 392.033c18.259-6.252 31.427-23.575 31.427-43.926 0-19.042-25.034-77.187-32.707-94.554l-13.721-31.057-13.721 31.057c-7.672 17.367-32.707 75.512-32.707 94.554 0 20.351 13.168 37.673 31.427 43.926v19.967h-71.901l-16.122-124.306h33.242v-132.948h-30v32.012h-32.396v-32.011h-30v32.011h-32.394v-32.012h-30v32.012h-32.396v-32.011h-30v32.011h-32.396v-32.012h-30v132.948h33.242l-16.122 124.306h-71.901v-19.967c18.259-6.253 31.427-23.575 31.427-43.926 0-19.042-25.034-77.187-32.707-94.554l-13.721-31.057-13.721 31.057c-7.671 17.368-32.705 75.512-32.705 94.554 0 20.351 13.168 37.673 31.427 43.926v19.967h-31.427v100h512v-100h-31.427zm-14.999-93.638c9.171 23.037 16.383 43.846 16.426 49.713 0 9.058-7.369 16.427-16.427 16.427s-16.426-7.367-16.427-16.425c.043-5.865 7.255-26.673 16.428-49.715zm-419.146 0c9.171 23.037 16.383 43.846 16.426 49.713 0 9.058-7.369 16.427-16.427 16.427s-16.426-7.367-16.427-16.425c.043-5.865 7.256-26.673 16.428-49.715zm99.78-40.701v-40.937h219.583v40.937zm33.494 30h152.596l16.122 124.306h-47.58v-31.217c0-24.725-20.115-44.84-44.84-44.84s-44.84 20.115-44.84 44.84v31.217h-47.58zm91.138 124.306h-29.68v-31.217c0-8.183 6.657-14.84 14.84-14.84s14.84 6.657 14.84 14.84zm211.16 70h-452v-40h452z"/><path d="m358.854 125.541h93.901c23.269 0 42.2-18.931 42.2-42.2 0-19.851-13.777-36.543-32.272-41.02-8.132-24.817-31.445-42.321-58.511-42.321-27.412 0-51.002 17.987-58.83 43.332-16.786 5.602-28.689 21.361-28.689 40.009 0 23.269 18.931 42.2 42.201 42.2zm-.432-54.385 12.9-.441 1.487-12.821c1.844-15.903 15.328-27.894 31.363-27.894 16.064 0 29.551 12.016 31.371 27.948l1.653 14.473 14.515-1.229c.406-.034.748-.051 1.043-.051 6.727 0 12.2 5.473 12.2 12.199 0 6.728-5.473 12.2-12.2 12.2h-93.901c-6.727 0-12.2-5.473-12.2-12.2 0-6.606 5.17-11.958 11.769-12.184z"/><path d="m59.246 125.541h93.901c23.269 0 42.2-18.931 42.2-42.2 0-19.851-13.777-36.543-32.272-41.02-8.132-24.817-31.446-42.321-58.511-42.321-27.412 0-51.002 17.987-58.83 43.332-16.786 5.602-28.689 21.361-28.689 40.009 0 23.269 18.932 42.2 42.201 42.2zm-.432-54.385 12.899-.441 1.487-12.821c1.845-15.903 15.329-27.894 31.364-27.894 16.064 0 29.551 12.016 31.371 27.948l1.653 14.473 14.515-1.229c.406-.034.748-.051 1.043-.051 6.727 0 12.2 5.473 12.2 12.199 0 6.728-5.473 12.2-12.2 12.2h-93.9c-6.727 0-12.2-5.473-12.2-12.2-.001-6.606 5.169-11.958 11.768-12.184z"/></g></svg>
