<?xml version="1.0" encoding="iso-8859-1"?>
<!-- Generator: Adobe Illustrator 17.1.0, SVG Export Plug-In . SVG Version: 6.00 Build 0)  -->
<!DOCTYPE svg PUBLIC "-//W3C//DTD SVG 1.1//EN" "http://www.w3.org/Graphics/SVG/1.1/DTD/svg11.dtd">
<svg version="1.1" id="Capa_1" xmlns="http://www.w3.org/2000/svg" xmlns:xlink="http://www.w3.org/1999/xlink" x="0px" y="0px"
	 viewBox="0 0 329.531 329.531" style="enable-background:new 0 0 329.531 329.531;" xml:space="preserve">
<path style="fill: lightGreen;" id="XMLID_484_" d="M242.712,18.778c-4.296-4.296-4.296-11.261,0-15.557c4.296-4.295,11.26-4.295,15.556,0l42.589,42.587
	c4.296,4.296,4.296,11.261,0,15.557c-2.148,2.147-4.963,3.222-7.778,3.222c-2.815,0-5.63-1.074-7.778-3.222L242.712,18.778z
	 M306.193,307.531H23.338c-6.075,0-11,4.925-11,11s4.925,11,11,11h282.854c6.075,0,11-4.925,11-11S312.268,307.531,306.193,307.531z
	 M28.675,275.405c-2.766-2.766-3.855-6.791-2.861-10.573l15.176-57.767c0.496-1.886,1.483-3.605,2.861-4.983L212.878,33.052
	c4.296-4.295,11.26-4.295,15.556,0l42.591,42.589c2.063,2.063,3.222,4.86,3.222,7.778c0,2.917-1.159,5.715-3.222,7.778
	L101.997,260.225c-1.378,1.378-3.098,2.365-4.982,2.86l-57.766,15.18c-0.924,0.243-1.864,0.361-2.795,0.361
	C33.573,278.626,30.764,277.495,28.675,275.405z M51.879,252.2l36.666-9.636L247.691,83.419l-27.034-27.032L61.512,215.534
	L51.879,252.2z"/>
<g>
</g>
<g>
</g>
<g>
</g>
<g>
</g>
<g>
</g>
<g>
</g>
<g>
</g>
<g>
</g>
<g>
</g>
<g>
</g>
<g>
</g>
<g>
</g>
<g>
</g>
<g>
</g>
<g>
</g>
</svg>
