<svg id="Capa_1" enable-background="new 0 0 512 512" height="512" viewBox="0 0 512 512" width="512" xmlns="http://www.w3.org/2000/svg"><g style="fill: orange;"><path d="m512 241h-13.759l-96.705-118.091h-50.046l-19.721 24.082-54.519-69.371h-60.932l-37.32 47.487h-71.74l-94.905 115.893h-12.353v271h512zm-146.301-88.091h21.628l78.596 95.977c-2.685 1.531-5.094 3.122-7.346 4.617-6.801 4.515-11.293 7.497-21.831 7.497s-15.03-2.982-21.831-7.497c-8.391-5.57-18.834-12.503-38.423-12.503-19.588 0-30.03 6.933-38.422 12.503-6.8 4.515-11.292 7.497-21.829 7.497-10.536 0-15.028-2.982-21.828-7.497-2.245-1.49-4.647-3.076-7.322-4.603zm116.301 167.343c-10.504 2.367-17.486 6.979-23.423 10.92-6.801 4.515-11.293 7.497-21.831 7.497s-15.03-2.982-21.831-7.497c-8.391-5.57-18.834-12.503-38.423-12.503-19.588 0-30.03 6.933-38.422 12.503-6.8 4.515-11.292 7.497-21.829 7.497-10.536 0-15.028-2.982-21.828-7.497-8.391-5.57-18.833-12.503-38.421-12.503-19.587 0-30.03 6.933-38.42 12.504-6.799 4.514-11.291 7.496-21.827 7.496s-15.028-2.982-21.827-7.496c-8.391-5.571-18.833-12.504-38.421-12.504s-30.031 6.933-38.422 12.503c-6.799 4.515-11.292 7.497-21.828 7.497s-15.027-2.982-21.827-7.496c-5.936-3.942-12.918-8.553-23.42-10.92v-45.963c2.236 1.159 4.382 2.585 6.827 4.207 8.39 5.57 18.832 12.503 38.42 12.503s30.031-6.933 38.421-12.503c6.8-4.515 11.292-7.497 21.829-7.497 10.536 0 15.028 2.982 21.828 7.497 8.391 5.57 18.833 12.503 38.421 12.503s30.03-6.933 38.42-12.504c6.799-4.514 11.291-7.496 21.826-7.496 10.537 0 15.028 2.982 21.828 7.497 8.391 5.57 18.833 12.503 38.422 12.503s30.031-6.933 38.423-12.503c6.8-4.515 11.292-7.497 21.828-7.497 10.538 0 15.03 2.982 21.831 7.497 8.391 5.57 18.834 12.503 38.423 12.503s30.032-6.933 38.423-12.503c2.446-1.624 4.594-3.05 6.831-4.209v45.964zm-452 31.711c2.236 1.159 4.383 2.579 6.827 4.202 8.391 5.571 18.833 12.504 38.42 12.504s30.031-6.933 38.421-12.503c6.8-4.515 11.292-7.497 21.829-7.497 10.536 0 15.028 2.982 21.828 7.497 8.391 5.57 18.833 12.503 38.421 12.503s30.03-6.933 38.42-12.504c6.799-4.514 11.291-7.496 21.826-7.496 10.537 0 15.028 2.982 21.828 7.497 8.391 5.57 18.833 12.503 38.422 12.503s30.031-6.933 38.423-12.503c6.8-4.515 11.292-7.497 21.828-7.497 10.538 0 15.03 2.982 21.831 7.497 8.391 5.57 18.834 12.503 38.423 12.503s30.032-6.933 38.423-12.503c2.446-1.624 4.594-3.044 6.831-4.204v45.96c-10.504 2.367-17.486 6.979-23.423 10.92-6.801 4.515-11.293 7.497-21.831 7.497s-15.03-2.982-21.831-7.497c-8.391-5.57-18.834-12.503-38.423-12.503-19.588 0-30.03 6.933-38.422 12.503-6.8 4.515-11.292 7.497-21.829 7.497-10.536 0-15.028-2.982-21.828-7.497-8.391-5.57-18.833-12.503-38.421-12.503-19.587 0-30.03 6.933-38.42 12.504-6.799 4.514-11.291 7.496-21.827 7.496s-15.028-2.982-21.827-7.496c-8.391-5.571-18.833-12.504-38.421-12.504s-30.031 6.933-38.422 12.503c-6.799 4.515-11.292 7.497-21.828 7.497s-15.027-2.982-21.827-7.496c-5.936-3.942-12.918-8.553-23.42-10.92v-45.96zm91.466-196.856h33.386l-29.615 36.164 23.211 19.008 49.681-60.668-.142-.116 32.91-41.875h31.774l49.627 63.147-57.536 70.26c-18.783.288-28.981 7.025-37.191 12.477-6.799 4.514-11.291 7.496-21.827 7.496s-15.028-2.982-21.827-7.496c-8.39-5.571-18.832-12.504-38.42-12.504s-30.031 6.933-38.422 12.503c-6.8 4.515-11.292 7.497-21.828 7.497s-15.027-2.982-21.827-7.496c-2.518-1.672-5.228-3.465-8.308-5.158zm-91.466 326.893v-52.367c2.236 1.159 4.383 2.579 6.827 4.202 8.391 5.571 18.833 12.504 38.42 12.504s30.031-6.933 38.421-12.503c6.8-4.515 11.292-7.497 21.829-7.497 10.536 0 15.028 2.982 21.828 7.497 8.391 5.57 18.833 12.503 38.421 12.503s30.03-6.933 38.42-12.504c6.799-4.514 11.291-7.496 21.826-7.496 10.537 0 15.028 2.982 21.828 7.497 8.391 5.57 18.833 12.503 38.422 12.503s30.031-6.933 38.423-12.503c6.8-4.515 11.292-7.497 21.828-7.497 10.538 0 15.03 2.982 21.831 7.497 8.391 5.57 18.834 12.503 38.423 12.503s30.032-6.933 38.423-12.503c2.446-1.624 4.594-3.044 6.831-4.204v52.368z"/><path d="m402.602 61h30c0-17.094 13.906-31 31-31v-30c-18.343 0-34.808 8.15-46 21.005-11.192-12.855-27.657-21.005-46-21.005v30c17.093 0 31 13.906 31 31z"/><path d="m79.398 61h30c0-17.094 13.907-31 31-31v-30c-18.343 0-34.808 8.15-46 21.005-11.191-12.855-27.656-21.005-46-21.005v30c17.094 0 31 13.906 31 31z"/></g></svg>
