<svg id="Capa_1" enable-background="new 0 0 512 512" height="512" viewBox="0 0 512 512" width="512" xmlns="http://www.w3.org/2000/svg"><g style="fill: orange;"><path d="m388.341 210.685h-58.216l-27.933 47.948-67.257-115.448h-71.954l-156.602 268.815h-6.379v100h512v-100h-6.379zm-40.973 30h23.731l99.803 171.315h-79.362l-71.987-123.569zm-167.143-67.501h37.469l38.207 65.583-17.814 10.408-39.132-24.498-39.126 24.497-17.81-10.407zm-53.309 91.506 33.448 19.544 38.591-24.162 38.595 24.162 33.452-19.545 85.818 147.311h-315.722zm355.084 217.31h-452v-40h452z"/><path d="m375.899 148.541h93.901c23.269 0 42.2-18.931 42.2-42.2 0-18.648-11.904-34.407-28.689-40.009-7.828-25.345-31.418-43.332-58.83-43.332-27.065 0-50.379 17.504-58.51 42.321-18.495 4.477-32.272 21.17-32.272 41.021 0 23.268 18.931 42.199 42.2 42.199zm0-54.399c.293 0 .637.017 1.053.052l14.506 1.218 1.652-14.463c1.82-15.934 15.307-27.949 31.371-27.949 16.036 0 29.519 11.992 31.364 27.894l1.487 12.822 12.9.441c6.599.225 11.768 5.577 11.768 12.184 0 6.727-5.473 12.2-12.2 12.2h-93.901c-6.727 0-12.2-5.473-12.2-12.2s5.473-12.199 12.2-12.199z"/><path d="m31 146.135h30c0-17.093 13.907-31 31-31v-30c-18.343 0-34.808 8.15-46 21.005-11.192-12.856-27.657-21.005-46-21.005v30c17.093 0 31 13.907 31 31z"/><path d="m183.959 61h30c0-17.093 13.907-31 31-31v-30c-18.343 0-34.808 8.15-46 21.005-11.192-12.855-27.657-21.005-46-21.005v30c17.093 0 31 13.907 31 31z"/></g></svg>
