<svg id="Capa_1" enable-background="new 0 0 512 512" height="512" viewBox="0 0 512 512" width="512" xmlns="http://www.w3.org/2000/svg"><g style="fill: red;"><path d="m497 318.669c-19.589 0-30.032 6.933-38.423 12.503-6.801 4.515-11.293 7.497-21.831 7.497s-15.03-2.982-21.831-7.497c-8.391-5.57-18.834-12.503-38.423-12.503-19.588 0-30.03 6.933-38.422 12.503-6.125 4.067-10.393 6.882-18.879 7.402v-31.697l25.253-29.973 42.157-24.633v-62.768h-98.406v-19.966c18.259-6.253 31.428-23.575 31.428-43.926 0-19.043-25.034-77.188-32.707-94.555l-13.721-31.056-13.721 31.057c-7.673 17.367-32.706 75.511-32.706 94.554 0 20.351 13.168 37.673 31.427 43.926v19.967h-83.384v-19.967c18.259-6.253 31.427-23.575 31.427-43.926 0-19.043-25.033-77.188-32.706-94.554l-13.72-31.057-13.721 31.056c-7.673 17.367-32.707 75.512-32.707 94.555 0 20.351 13.168 37.673 31.428 43.926v19.966h-83.385v-19.966c18.259-6.253 31.428-23.575 31.428-43.926 0-19.043-25.034-77.188-32.707-94.555l-13.721-31.056-13.721 31.057c-7.673 17.366-32.706 75.511-32.706 94.554 0 20.351 13.168 37.673 31.427 43.926v19.967h-31.427v322.496h512v-193.331zm-223.805-242.77c9.173 23.042 16.385 43.849 16.428 49.711 0 9.058-7.369 16.427-16.428 16.427-9.057 0-16.426-7.369-16.427-16.426.045-5.865 7.256-26.671 16.427-49.712zm-113.383 0c9.172 23.042 16.384 43.849 16.427 49.711 0 9.058-7.369 16.427-16.427 16.427s-16.427-7.369-16.428-16.426c.044-5.865 7.255-26.671 16.428-49.712zm-113.385 0c9.173 23.042 16.385 43.849 16.428 49.711 0 9.058-7.369 16.427-16.428 16.427-9.058 0-16.426-7.367-16.427-16.425.043-5.864 7.255-26.67 16.427-49.713zm308.237 280.267c6.8-4.514 11.292-7.497 21.828-7.497 10.538 0 15.03 2.982 21.831 7.497 8.391 5.57 18.834 12.503 38.423 12.503s30.032-6.933 38.423-12.503c2.446-1.624 4.594-3.049 6.831-4.209v45.965c-10.504 2.367-17.486 6.979-23.423 10.92-6.801 4.515-11.293 7.497-21.831 7.497s-15.03-2.982-21.831-7.497c-8.391-5.57-18.834-12.503-38.423-12.503-19.588 0-30.03 6.933-38.422 12.503-6.125 4.067-10.393 6.882-18.879 7.402v-47.64c17.698-.659 27.515-7.155 35.473-12.438zm1.938-136.663v15.552l-31.763 18.56-27.624 32.787h-267.215v-66.898h326.602zm-95.126 262.497v-38.599h-30v38.599h-85.737v-38.099h-30v38.099h-85.739v-165.599h27.869v74.655h30v-74.655h27.869v37.665h30v-37.665h27.868v74.655h30v-74.655h27.869v37.665h30v-37.665h27.716v165.599zm57.715 0v-35.727c17.698-.659 27.515-7.155 35.473-12.438 6.8-4.514 11.292-7.497 21.828-7.497 10.538 0 15.03 2.982 21.831 7.497 8.391 5.57 18.834 12.503 38.423 12.503s30.032-6.933 38.423-12.503c2.446-1.624 4.594-3.044 6.831-4.204v52.369z"/><path d="m57.869 421.338h30v30.282h-30z"/><path d="m115.738 384.348h30v30.282h-30z"/><path d="m173.606 421.338h30v30.282h-30z"/><path d="m231.476 384.348h30v30.282h-30z"/></g></svg>
