<svg id="Capa_1" enable-background="new 0 0 512.018 512.018" height="512" viewBox="0 0 512.018 512.018" width="512" xmlns="http://www.w3.org/2000/svg"><g style="fill: darkRed;"><path d="m512.018 232.992c0-33.843-24.192-62.141-56.191-68.51-6.369-31.999-34.667-56.191-68.509-56.191-15.904 0-31.468 5.492-43.823 15.464-8.296 6.695-14.939 15.226-19.429 24.786-1.656-.138-3.32-.207-4.991-.207-23.851 0-44.779 13.799-54.387 34.725h-17.358c-9.607-20.926-30.536-34.725-54.387-34.725-1.671 0-3.335.069-4.991.207-4.489-9.561-11.133-18.091-19.429-24.786-12.355-9.972-27.919-15.464-43.823-15.464-33.842 0-62.14 24.192-68.509 56.191-31.999 6.37-56.191 34.667-56.191 68.51l.009 279.017h512zm-442.167-39.85h15v-15c0-21.974 17.877-39.851 39.85-39.851 18.69 0 34.657 12.707 38.828 30.901l3.743 16.324 15.815-5.513c3.179-1.108 6.495-1.67 9.856-1.67 13.99 0 25.966 9.505 29.122 23.113l2.693 11.611h62.5l2.693-11.611c3.156-13.608 15.132-23.113 29.122-23.113 3.361 0 6.678.562 9.856 1.67l15.815 5.513 3.743-16.324c4.171-18.194 20.138-30.901 38.828-30.901 21.973 0 39.85 17.877 39.85 39.851v15h15c21.974 0 39.851 17.877 39.851 39.851v9.598c-10.509 2.366-17.493 6.979-23.432 10.922-6.801 4.515-11.293 7.497-21.831 7.497s-15.03-2.982-21.831-7.497c-8.391-5.57-18.834-12.503-38.423-12.503-19.588 0-30.03 6.933-38.422 12.503-6.8 4.515-11.292 7.497-21.829 7.497-10.536 0-15.028-2.982-21.828-7.497-8.391-5.57-18.833-12.503-38.421-12.503s-30.03 6.933-38.421 12.504c-6.799 4.514-11.291 7.496-21.826 7.496-10.536 0-15.027-2.982-21.827-7.496-8.391-5.571-18.833-12.504-38.422-12.504-19.588 0-30.03 6.933-38.421 12.503-6.8 4.515-11.291 7.497-21.828 7.497-10.536 0-15.028-2.982-21.827-7.497-5.936-3.943-12.92-8.556-23.427-10.923v-9.598c0-21.973 17.877-39.85 39.851-39.85zm412.158 127.119c-10.504 2.367-17.486 6.979-23.423 10.92-6.801 4.515-11.293 7.497-21.831 7.497s-15.03-2.982-21.831-7.497c-8.391-5.57-18.834-12.503-38.423-12.503-19.588 0-30.03 6.933-38.422 12.503-6.8 4.515-11.292 7.497-21.829 7.497-10.536 0-15.028-2.982-21.828-7.497-8.391-5.57-18.833-12.503-38.421-12.503s-30.03 6.933-38.421 12.504c-6.799 4.514-11.291 7.496-21.826 7.496-10.536 0-15.027-2.982-21.827-7.496-8.391-5.571-18.833-12.504-38.422-12.504-19.588 0-30.03 6.933-38.421 12.503-6.8 4.515-11.291 7.497-21.828 7.497-10.536 0-15.028-2.982-21.827-7.497-5.936-3.941-12.917-8.552-23.42-10.92v-45.963c2.236 1.159 4.382 2.585 6.826 4.207 8.391 5.571 18.833 12.504 38.421 12.504 19.589 0 30.031-6.933 38.422-12.504 6.799-4.514 11.291-7.496 21.827-7.496s15.028 2.982 21.828 7.497c8.391 5.57 18.833 12.503 38.421 12.503s30.029-6.933 38.42-12.503c6.799-4.515 11.291-7.497 21.827-7.497s15.028 2.982 21.827 7.496c8.391 5.571 18.833 12.504 38.422 12.504s30.031-6.933 38.423-12.503c6.8-4.515 11.292-7.497 21.828-7.497 10.538 0 15.03 2.982 21.831 7.497 8.391 5.57 18.834 12.503 38.423 12.503s30.032-6.933 38.423-12.503c2.446-1.624 4.594-3.05 6.831-4.209zm-452 31.711c2.235 1.159 4.382 2.579 6.826 4.202 8.391 5.571 18.833 12.504 38.421 12.504 19.589 0 30.031-6.933 38.422-12.504 6.799-4.514 11.291-7.496 21.827-7.496s15.028 2.982 21.828 7.497c8.391 5.57 18.833 12.503 38.421 12.503s30.029-6.933 38.42-12.503c6.799-4.515 11.291-7.497 21.827-7.497s15.028 2.982 21.827 7.496c8.391 5.571 18.833 12.504 38.422 12.504s30.031-6.933 38.423-12.503c6.8-4.515 11.292-7.497 21.828-7.497 10.538 0 15.03 2.982 21.831 7.497 8.391 5.57 18.834 12.503 38.423 12.503s30.032-6.933 38.423-12.503c2.446-1.624 4.594-3.044 6.831-4.204v45.96c-10.504 2.367-17.486 6.979-23.423 10.92-6.801 4.515-11.293 7.497-21.831 7.497s-15.03-2.982-21.831-7.497c-8.391-5.57-18.834-12.503-38.423-12.503-19.588 0-30.03 6.933-38.422 12.503-6.8 4.515-11.292 7.497-21.829 7.497-10.536 0-15.028-2.982-21.828-7.497-8.391-5.57-18.833-12.503-38.421-12.503s-30.03 6.933-38.421 12.504c-6.799 4.514-11.291 7.496-21.826 7.496-10.536 0-15.027-2.982-21.827-7.496-8.391-5.571-18.833-12.504-38.422-12.504-19.588 0-30.03 6.933-38.421 12.503-6.8 4.515-11.291 7.497-21.828 7.497-10.536 0-15.028-2.982-21.827-7.497-5.936-3.941-12.917-8.552-23.42-10.92zm0 130.037v-52.367c2.235 1.159 4.382 2.579 6.826 4.202 8.391 5.571 18.833 12.504 38.421 12.504 19.589 0 30.031-6.933 38.422-12.504 6.799-4.514 11.291-7.496 21.827-7.496s15.028 2.982 21.828 7.497c8.391 5.57 18.833 12.503 38.421 12.503s30.029-6.933 38.42-12.503c6.799-4.515 11.291-7.497 21.827-7.497s15.028 2.982 21.827 7.496c8.391 5.571 18.833 12.504 38.422 12.504s30.031-6.933 38.423-12.503c6.8-4.515 11.292-7.497 21.828-7.497 10.538 0 15.03 2.982 21.831 7.497 8.391 5.57 18.834 12.503 38.423 12.503s30.032-6.933 38.423-12.503c2.446-1.624 4.594-3.044 6.831-4.204v52.368z"/><path d="m402.61 61.009h30c0-17.094 13.906-31 31-31v-30c-18.343 0-34.808 8.15-46 21.005-11.192-12.855-27.657-21.005-46-21.005v30c17.094 0 31 13.906 31 31z"/><path d="m241.009 108.779h30c0-17.094 13.906-31 31-31v-30c-18.343 0-34.808 8.15-46 21.005-11.192-12.855-27.657-21.005-46-21.005v30c17.094 0 31 13.907 31 31z"/><path d="m79.407 61.009h30c0-17.094 13.906-31 31-31v-30c-18.343 0-34.808 8.15-46 21.005-11.192-12.856-27.657-21.005-46-21.005v30c17.094 0 31 13.906 31 31z"/></g></svg>
